<svg xmlns="http://www.w3.org/2000/svg" width="539.851" height="509.049" viewBox="0 0 539.851 509.049">
  <g id="组_24752" data-name="组 24752" transform="translate(8993 337)">
    <path id="路径_131276" data-name="路径 131276" d="M24.759-78.993v26.724H56.2v12.183H24.759v27.9h35.37V0H9.825V-91.176h50.3v12.183Zm84.626,42.444L132.7,0H115.8L100.215-24.5,85.543,0H69.954L93.272-35.5,69.954-72.181h16.9l15.589,24.5,14.672-24.5H132.7ZM175.147,1.179a36.966,36.966,0,0,1-18.471-4.651,33.407,33.407,0,0,1-12.969-13.1,39.516,39.516,0,0,1-4.716-19.585,38.758,38.758,0,0,1,4.847-19.519,33.479,33.479,0,0,1,13.231-13.1A38.393,38.393,0,0,1,175.8-73.36a38.393,38.393,0,0,1,18.733,4.585,33.479,33.479,0,0,1,13.231,13.1,38.758,38.758,0,0,1,4.847,19.519,37.953,37.953,0,0,1-4.978,19.519A34.469,34.469,0,0,1,194.077-3.472,39.08,39.08,0,0,1,175.147,1.179Zm0-12.969a22.223,22.223,0,0,0,10.807-2.751,20.961,20.961,0,0,0,8.188-8.253,26.534,26.534,0,0,0,3.144-13.362,27.085,27.085,0,0,0-3.013-13.3,20.34,20.34,0,0,0-7.991-8.187,21.854,21.854,0,0,0-10.742-2.751,21.488,21.488,0,0,0-10.677,2.751,19.637,19.637,0,0,0-7.794,8.188,28.1,28.1,0,0,0-2.882,13.3q0,11.659,5.961,18.013A19.7,19.7,0,0,0,175.147-11.79Zm101-34.977a20.133,20.133,0,0,1,12.445,7.729A22.731,22.731,0,0,1,293.7-24.5a22.532,22.532,0,0,1-3.6,12.511A24.414,24.414,0,0,1,279.685-3.21,36.82,36.82,0,0,1,263.834,0H227.416V-91.045h34.715A37.263,37.263,0,0,1,278.113-87.9,23.454,23.454,0,0,1,288.2-79.452,21.482,21.482,0,0,1,291.606-67.6a20.306,20.306,0,0,1-4.192,13.1A24.4,24.4,0,0,1,276.148-46.767Zm-33.8-6.026h18.471q7.336,0,11.462-3.34t4.126-9.628q0-6.157-4.126-9.629t-11.462-3.472H242.35Zm20.174,40.61q7.6,0,11.921-3.668t4.323-10.218a13.257,13.257,0,0,0-4.585-10.611Q269.6-40.61,262-40.61H242.35v28.427ZM324.88-61.7a23.454,23.454,0,0,1,8.711-8.581,25.767,25.767,0,0,1,12.9-3.078V-57.9h-3.8q-8.777,0-13.3,4.454T324.88-37.99V0H309.946V-72.181H324.88Zm30.392,25.283a39.946,39.946,0,0,1,4.52-19.257A33.126,33.126,0,0,1,372.105-68.71a32.99,32.99,0,0,1,17.227-4.65A31.51,31.51,0,0,1,404.2-70.02,30.174,30.174,0,0,1,414.353-61.7v-10.48h15.065V0H414.353V-10.742A29.659,29.659,0,0,1,404-2.227,31.9,31.9,0,0,1,389.07,1.179,31.739,31.739,0,0,1,372.04-3.6a33.91,33.91,0,0,1-12.248-13.362A41.105,41.105,0,0,1,355.272-36.418Zm59.081.262a26.137,26.137,0,0,0-3.079-12.969,21.61,21.61,0,0,0-8.056-8.384,21.078,21.078,0,0,0-10.742-2.882,21.455,21.455,0,0,0-10.742,2.816,21.241,21.241,0,0,0-8.056,8.253,25.766,25.766,0,0,0-3.078,12.9,26.888,26.888,0,0,0,3.078,13.1,21.72,21.72,0,0,0,8.122,8.581,20.832,20.832,0,0,0,10.676,2.947,21.078,21.078,0,0,0,10.742-2.882,21.5,21.5,0,0,0,8.056-8.45A26.511,26.511,0,0,0,414.353-36.156Zm42.313-45.588a9.252,9.252,0,0,1-6.812-2.751,9.252,9.252,0,0,1-2.751-6.812,9.252,9.252,0,0,1,2.751-6.812,9.252,9.252,0,0,1,6.812-2.751,9.1,9.1,0,0,1,6.681,2.751,9.252,9.252,0,0,1,2.751,6.812,9.252,9.252,0,0,1-2.751,6.812A9.1,9.1,0,0,1,456.666-81.744ZM464-72.181V0H449.068V-72.181ZM520.07-73.36a32.369,32.369,0,0,1,15.262,3.537,25.154,25.154,0,0,1,10.545,10.48q3.8,6.943,3.8,16.768V0h-14.8V-40.348q0-9.694-4.847-14.868t-13.231-5.174q-8.384,0-13.3,5.174t-4.913,14.868V0H483.652V-72.181h14.934v8.253a24.721,24.721,0,0,1,9.366-6.943A29.943,29.943,0,0,1,520.07-73.36Z" transform="translate(-9002.825 170.87)"/>
    <path id="联合_9" data-name="联合 9" d="M172.08,369.3a28.857,28.857,0,0,1-7.891-26.143c-.807-12.814-4.364-16.61-4.364-16.61l.033-.03-21.381-21.381-.051.045s-3.324-4.223-19.82-5.919l-.034,0a28.881,28.881,0,1,1,24.363-24.684c.025.111.048.227.067.346.022-.435.046-.866.08-1.3.031-.319.052.4.052,1.1a9.032,9.032,0,0,1-.025,1.118.63.63,0,0,1-.021-.183c-.019-.263-.046-.505-.086-.735a32.933,32.933,0,0,0,5.2,18.942l23.127,23.127c1.864,1.43,6.822,4.015,17.739,3.192l.382-.025A28.882,28.882,0,1,1,172.08,369.3Zm78.186-78.188a28.878,28.878,0,1,1,20.421,8.459A28.878,28.878,0,0,1,250.266,291.107Zm78.186-78.185a28.878,28.878,0,1,1,20.421,8.459A28.878,28.878,0,0,1,328.451,212.922Zm-156.371,0a29.176,29.176,0,0,1-2.2-2.464q-.108-.1-.217-.2a46.817,46.817,0,0,0-18.918-10.333H76.706l-.006.07s-8.136.813-16.324,8.208a28.846,28.846,0,1,1,.433-30.713c7.659,7.177,13.729,7.568,14.67,7.584h75.531a34.531,34.531,0,0,0,17.6-8.808,28.885,28.885,0,1,1,3.469,36.657Zm78.186-78.185a28.878,28.878,0,1,1,20.421,8.459A28.878,28.878,0,0,1,250.266,134.736Zm-156.371,0a28.883,28.883,0,0,1,27.2-48.5c.279.006.57.021.876.047,7.674.64,12.117-1.742,14.271-3.465l1.637-1.637,23.13-23.132c1.332-1.736,3.665-6.159,3.313-15.592a28.884,28.884,0,1,1,29.858,22.5c-.583.046-1.222.071-1.922.073-16.916.05-21.691,4.527-21.691,4.527l-.03-.034L149.151,90.909l.045.05a1.281,1.281,0,0,0-.232.137l-.875.875c-1.329,1.689-3.525,6.061-4.662,17.091-.1.921-.218,1.744-.364,2.475a28.881,28.881,0,0,1-49.169,23.2Z" transform="translate(-8915.249 -344.249)" fill="#ffc100"/>
  </g>
</svg>
