<svg xmlns="http://www.w3.org/2000/svg" width="370.504" height="370.506" viewBox="0 0 370.504 370.506">
  <path id="联合_9" data-name="联合 9" d="M172.08,369.3a28.857,28.857,0,0,1-7.891-26.143c-.807-12.814-4.364-16.61-4.364-16.61l.033-.03-21.381-21.381-.051.045s-3.324-4.223-19.82-5.919l-.034,0a28.881,28.881,0,1,1,24.363-24.684c.025.111.048.227.067.346.022-.435.046-.866.08-1.3.031-.319.052.4.052,1.1a9.032,9.032,0,0,1-.025,1.118.63.63,0,0,1-.021-.183c-.019-.263-.046-.505-.086-.735a32.933,32.933,0,0,0,5.2,18.942l23.127,23.127c1.864,1.43,6.822,4.015,17.739,3.192l.382-.025A28.882,28.882,0,1,1,172.08,369.3Zm78.186-78.188a28.878,28.878,0,1,1,20.421,8.459A28.878,28.878,0,0,1,250.266,291.107Zm78.186-78.185a28.878,28.878,0,1,1,20.421,8.459A28.878,28.878,0,0,1,328.451,212.922Zm-156.371,0a29.176,29.176,0,0,1-2.2-2.464q-.108-.1-.217-.2a46.817,46.817,0,0,0-18.918-10.333H76.706l-.006.07s-8.136.813-16.324,8.208a28.846,28.846,0,1,1,.433-30.713c7.659,7.177,13.729,7.568,14.67,7.584h75.531a34.531,34.531,0,0,0,17.6-8.808,28.885,28.885,0,1,1,3.469,36.657Zm78.186-78.185a28.878,28.878,0,1,1,20.421,8.459A28.878,28.878,0,0,1,250.266,134.736Zm-156.371,0a28.883,28.883,0,0,1,27.2-48.5c.279.006.57.021.876.047,7.674.64,12.117-1.742,14.271-3.465l1.637-1.637,23.13-23.132c1.332-1.736,3.665-6.159,3.313-15.592a28.884,28.884,0,1,1,29.858,22.5c-.583.046-1.222.071-1.922.073-16.916.05-21.691,4.527-21.691,4.527l-.03-.034L149.151,90.909l.045.05a1.281,1.281,0,0,0-.232.137l-.875.875c-1.329,1.689-3.525,6.061-4.662,17.091-.1.921-.218,1.744-.364,2.475a28.881,28.881,0,0,1-49.169,23.2Z" transform="translate(-7.249 -7.249)" fill="#fff"/>
</svg>
